<?xml version="1.0" encoding="UTF-8"?>
<!DOCTYPE svg PUBLIC "-//W3C//DTD SVG 1.1//EN" "http://www.w3.org/Graphics/SVG/1.1/DTD/svg11.dtd">
<!-- Creator: CorelDRAW -->
<svg xmlns="http://www.w3.org/2000/svg" xml:space="preserve" width="2048px" height="2048px" style="shape-rendering:geometricPrecision; text-rendering:geometricPrecision; image-rendering:optimizeQuality; fill-rule:evenodd; clip-rule:evenodd"
viewBox="0 0 2048 2048"
 xmlns:xlink="http://www.w3.org/1999/xlink">
 <defs>
  <style type="text/css">
   <![CDATA[
    .fil1 {fill:none}
    .fil0 {fill:#212121;fill-rule:nonzero}
   ]]>
  </style>
 </defs>
 <g id="Layer_x0020_1">
  <metadata id="CorelCorpID_0Corel-Layer"/>
  <g id="_265597920">
   <path id="_265598112" class="fil0" d="M1322.29 951.877c105.193,0 200.433,42.6414 269.372,111.582 68.941,68.9386 111.582,164.179 111.582,269.372 0,105.193 -42.6414,200.433 -111.582,269.372 -68.9386,68.941 -164.179,111.582 -269.372,111.582 -105.193,0 -200.431,-42.6414 -269.372,-111.582 -68.9386,-68.9386 -111.581,-164.179 -111.581,-269.372 0,-105.193 42.6426,-200.433 111.581,-269.372 68.941,-68.941 164.179,-111.582 269.372,-111.582zm224.121 156.833c-57.3544,-57.3556 -136.595,-92.8312 -224.121,-92.8312 -87.5268,0 -166.766,35.4756 -224.121,92.8312 -57.3532,57.3532 -92.83,136.595 -92.83,224.121 0,87.5268 35.4768,166.768 92.83,224.121 57.3556,57.3556 136.595,92.8312 224.121,92.8312 87.5268,0 166.767,-35.4756 224.121,-92.8312 57.3556,-57.3544 92.8312,-136.595 92.8312,-224.121 0,-87.5268 -35.4756,-166.767 -92.8312,-224.121z"/>
   <path id="_265598040" class="fil0" d="M1322.29 1154.03c49.3701,0 94.0702,20.015 126.428,52.3725 32.3575,32.3575 52.3725,77.0587 52.3725,126.428 0,49.3689 -20.015,94.0713 -52.3725,126.426 -32.3575,32.3575 -77.0575,52.3725 -126.428,52.3725 -49.3689,0 -94.0702,-20.0138 -126.428,-52.3713 -32.3551,-32.3575 -52.3713,-77.0575 -52.3713,-126.428 0,-49.3701 20.015,-94.0702 52.3725,-126.428 32.3551,-32.3575 77.0575,-52.3725 126.426,-52.3725zm81.1772 97.6229c-20.7721,-20.7721 -49.4729,-33.6213 -81.1772,-33.6213 -31.7032,0 -60.4052,12.8504 -81.176,33.6213 -20.7721,20.7721 -33.6213,49.4729 -33.6213,81.1772 0,31.7044 12.8492,60.4052 33.6201,81.1772 20.7721,20.7721 49.4741,33.6201 81.1772,33.6201 31.7044,0 60.4052,-12.8492 81.1772,-33.6213 20.7709,-20.7709 33.6213,-49.4729 33.6213,-81.176 0,-31.7032 -12.8492,-60.4052 -33.6213,-81.1772z"/>
   <g>
    <polygon id="_265598376" class="fil0" points="1290.29,983.878 1290.29,873.545 1354.29,873.545 1354.29,983.878 "/>
    <polygon id="_265598592" class="fil0" points="980.146,1371.64 869.813,1371.64 869.813,1307.64 980.146,1307.64 "/>
    <polygon id="_265598568" class="fil0" points="1367.91,1681.79 1367.91,1792.12 1303.91,1792.12 1303.91,1681.79 "/>
    <polygon id="_265598664" class="fil0" points="1678.05,1294.02 1788.39,1294.02 1788.39,1358.02 1678.05,1358.02 "/>
   </g>
   <g>
    <polygon id="_265598304" class="fil0" points="1054.91,1113.53 976.894,1035.51 1022.14,990.258 1100.16,1068.27 "/>
    <polygon id="_265598136" class="fil0" points="1109.79,1607.02 1031.78,1685.04 986.526,1639.79 1064.54,1561.77 "/>
    <polygon id="_265598496" class="fil0" points="1603.29,1552.14 1681.31,1630.16 1636.06,1675.41 1558.04,1597.39 "/>
    <polygon id="_265597728" class="fil0" points="1548.41,1058.64 1626.42,980.626 1671.67,1025.88 1593.66,1103.89 "/>
   </g>
  </g>
  <g id="_265596672">
   <path id="_265597224" class="fil0" d="M602.781 618.531c82.6831,0 157.544,33.5173 211.734,87.7064 54.1878,54.1878 87.7064,129.05 87.7064,211.734 0,82.6831 -33.5173,157.544 -87.7075,211.733 -54.189,54.1902 -129.05,87.7075 -211.733,87.7075 -82.6831,0 -157.544,-33.5173 -211.733,-87.7075 -54.1902,-54.189 -87.7075,-129.05 -87.7075,-211.733 0,-82.6831 33.5173,-157.544 87.7075,-211.733 54.189,-54.1902 129.05,-87.7075 211.733,-87.7075zm166.484 132.957c-42.6048,-42.6036 -101.466,-68.9552 -166.484,-68.9552 -65.0174,0 -123.879,26.3516 -166.482,68.9564 -42.6048,42.6036 -68.9564,101.465 -68.9564,166.482 0,65.0186 26.3516,123.879 68.9564,166.482 42.6036,42.6048 101.465,68.9564 166.482,68.9564 65.0174,0 123.879,-26.3516 166.482,-68.9564 42.6048,-42.6036 68.9564,-101.464 68.9564,-166.482 0,-65.0186 -26.3528,-123.881 -68.9552,-166.484z"/>
   <path id="_265597296" class="fil0" d="M602.781 773.463c39.9,0 76.0276,16.1764 102.18,42.3284 26.152,26.152 42.3284,62.2796 42.3284,102.18 0,39.9 -16.1764,76.0276 -42.3284,102.18 -26.152,26.152 -62.2796,42.3284 -102.18,42.3284 -39.9,0 -76.0276,-16.1764 -102.18,-42.3284 -26.152,-26.152 -42.3284,-62.2796 -42.3284,-102.18 0,-39.9 16.1764,-76.0276 42.3284,-102.18 26.152,-26.152 62.2796,-42.3284 102.18,-42.3284zm56.9292 87.5788c-14.5665,-14.5665 -34.6949,-23.5772 -56.9292,-23.5772 -22.2343,0 -42.3626,9.01064 -56.9292,23.5772 -14.5665,14.5665 -23.5772,34.6949 -23.5772,56.9292 0,22.2343 9.01064,42.3626 23.5772,56.9292 14.5665,14.5665 34.6949,23.5772 56.9292,23.5772 22.2343,0 42.3626,-9.01064 56.9292,-23.5772 14.5665,-14.5665 23.5772,-34.6949 23.5772,-56.9292 0,-22.2343 -9.01064,-42.3626 -23.5772,-56.9292z"/>
   <g>
    <polygon id="_265597584" class="fil0" points="570.78,650.532 570.78,565.972 634.782,565.972 634.782,650.532 "/>
    <polygon id="_265597272" class="fil0" points="340.559,955.192 255.999,955.192 255.999,891.191 340.559,891.191 "/>
    <polygon id="_265597824" class="fil0" points="645.22,1185.41 645.22,1269.97 581.219,1269.97 581.219,1185.41 "/>
    <polygon id="_265597248" class="fil0" points="875.441,880.752 960.001,880.752 960.001,944.754 875.441,944.754 "/>
   </g>
   <g>
    <polygon id="_265597776" class="fil0" points="392.574,755.18 332.782,695.386 378.032,650.136 437.824,709.929 "/>
    <polygon id="_265597752" class="fil0" points="445.207,1133.4 385.414,1193.19 340.164,1147.94 399.957,1088.15 "/>
    <polygon id="_265596744" class="fil0" points="823.426,1080.77 883.218,1140.56 837.968,1185.81 778.176,1126.02 "/>
    <polygon id="_265596624" class="fil0" points="770.793,702.546 830.586,642.754 875.837,688.004 816.043,747.797 "/>
   </g>
  </g>
  <g id="_265595976">
   <path id="_265596960" class="fil0" d="M1164.73 293.184c69.2564,0 131.961,28.076 177.35,73.4646 45.3886,45.3886 73.4646,108.093 73.4646,177.35 0,69.2552 -28.076,131.961 -73.4646,177.35 -45.3886,45.3886 -108.095,73.4646 -177.35,73.4646 -69.2552,0 -131.961,-28.076 -177.35,-73.4646 -45.3886,-45.3886 -73.4646,-108.095 -73.4646,-177.35 0,-69.2564 28.076,-131.961 73.4646,-177.35 45.3886,-45.3886 108.093,-73.4646 177.35,-73.4646zm132.099 118.715c-33.8032,-33.8032 -80.5087,-54.7134 -132.099,-54.7134 -51.5906,0 -98.2961,20.9103 -132.099,54.7134 -33.8032,33.8032 -54.7134,80.5087 -54.7134,132.099 0,51.5894 20.9103,98.2961 54.7134,132.099 33.8032,33.8032 80.5099,54.7134 132.099,54.7134 51.5894,0 98.2961,-20.9103 132.099,-54.7134 33.8032,-33.8032 54.7134,-80.5099 54.7134,-132.099 0,-51.5906 -20.9103,-98.2961 -54.7134,-132.099z"/>
   <path id="_265596912" class="fil0" d="M1164.73 419.946c34.2508,0 65.2642,13.8862 87.7146,36.3366 22.4504,22.4504 36.3366,53.4638 36.3366,87.7158 0,34.2508 -13.8862,65.2642 -36.3366,87.7146 -22.4504,22.4504 -53.4638,36.3366 -87.7146,36.3366 -34.2508,0 -65.2654,-13.8862 -87.7158,-36.3366 -22.4492,-22.4504 -36.3366,-53.4638 -36.3366,-87.7146 0,-34.252 13.8874,-65.2654 36.3366,-87.7158 22.4504,-22.4504 53.465,-36.3366 87.7158,-36.3366zm42.4642 81.5871c-10.8638,-10.8638 -25.8792,-17.5854 -42.4642,-17.5854 -16.5851,0 -31.6016,6.72166 -42.4654,17.5854 -10.8638,10.865 -17.5854,25.8803 -17.5854,42.4654 0,16.5851 6.72166,31.5992 17.5854,42.4642 10.8638,10.8638 25.8803,17.5854 42.4654,17.5854 16.5851,0 31.6004,-6.72166 42.4642,-17.5854 10.8638,-10.8638 17.5854,-25.8792 17.5854,-42.4642 0,-16.5862 -6.72166,-31.6016 -17.5854,-42.4654z"/>
   <g>
    <polygon id="_265596816" class="fil0" points="1132.73,325.185 1132.73,255.999 1196.73,255.999 1196.73,325.185 "/>
    <polygon id="_265596864" class="fil0" points="950.186,580.27 881,580.27 881,516.269 950.186,516.269 "/>
    <polygon id="_265597128" class="fil0" points="1205.27,762.813 1205.27,831.999 1141.27,831.999 1141.27,762.813 "/>
    <polygon id="_265596456" class="fil0" points="1387.81,507.728 1457,507.728 1457,571.73 1387.81,571.73 "/>
   </g>
   <g>
    <polygon id="_265595856" class="fil0" points="988.63,414.919 939.708,365.998 984.959,320.747 1033.88,369.669 "/>
    <polygon id="_265595688" class="fil0" points="1039.92,724.369 990.999,773.291 945.748,728.04 994.67,679.119 "/>
    <polygon id="_265596072" class="fil0" points="1349.37,673.079 1398.29,722 1353.04,767.251 1304.12,718.329 "/>
    <polygon id="_265596048" class="fil0" points="1298.08,363.629 1347,314.707 1392.25,359.958 1343.33,408.879 "/>
   </g>
  </g>
 </g>
 <rect class="fil1" width="2048" height="2048"/>
</svg>
