<?xml version="1.0" encoding="UTF-8"?>
<!DOCTYPE svg PUBLIC "-//W3C//DTD SVG 1.1//EN" "http://www.w3.org/Graphics/SVG/1.1/DTD/svg11.dtd">
<!-- Creator: CorelDRAW -->
<svg xmlns="http://www.w3.org/2000/svg" xml:space="preserve" width="2048px" height="2048px" style="shape-rendering:geometricPrecision; text-rendering:geometricPrecision; image-rendering:optimizeQuality; fill-rule:evenodd; clip-rule:evenodd"
viewBox="0 0 2048 2048"
 xmlns:xlink="http://www.w3.org/1999/xlink">
 <defs>
  <style type="text/css">
   <![CDATA[
    .fil1 {fill:none}
    .fil0 {fill:#212121;fill-rule:nonzero}
   ]]>
  </style>
 </defs>
 <g id="Layer_x0020_1">
  <metadata id="CorelCorpID_0Corel-Layer"/>
  <path class="fil0" d="M400.21 1440c17.6728,0 32.0008,-14.328 32.0008,-32.0008 0,-17.6728 -14.328,-32.0008 -32.0008,-32.0008l-118.524 0 0 -267.216c0,-74.9256 28.0205,-161.346 82.1623,-224.035 43.291,-50.126 103.708,-84.7465 180.153,-84.7465l127.722 0 0 579.984c-9.85394,5.45433 -16.526,15.9555 -16.526,28.0146 0,17.6728 14.328,32.0008 32.0008,32.0008l16.526 0c17.6728,0 32.0008,-14.328 32.0008,-32.0008l0 -640c0,-17.6728 -14.328,-32.0008 -32.0008,-32.0008l-159.723 0c-97.1942,0 -173.745,43.7103 -228.403,106.999 -64.5213,74.7083 -97.9135,177.193 -97.9135,265.785l0 279.709c0,14.0457 5.66575,26.8063 14.8087,36.1004l0.298819 0.307087 22.624 -22.6311 -22.5 22.6252c9.32245,9.3189 22.1658,15.1075 36.2776,15.1075l131.016 0zm286.988 -32.0008l-15.4748 0 0 -28.0146c4.58622,-2.53937 9.86103,-3.98622 15.4748,-3.98622l0 32.0008zm0 27.4075c-9.27402,-5.60434 -15.4748,-15.7819 -15.4748,-27.4075l15.4748 0 0 27.4075z"/>
  <path class="fil0" d="M1592.04 1403.23c12.5032,0 23.8701,5.09646 32.1437,13.3429l0.0307087 0.0318898 0.0011811 0.0011811 0.0330709 -0.0330709c0.36378,0.36378 0.7063,0.741733 1.02756,1.13032 7.63938,8.17205 12.313,19.1032 12.313,31.076 0,12.5032 -5.09646,23.8701 -13.3429,32.1437l-0.0318898 0.0307087 -0.0011811 0.0011811 0.0330709 0.0330709c-0.36378,0.36378 -0.741733,0.707481 -1.1315,1.02874 -8.17087,7.63701 -19.1008,12.3118 -31.0748,12.3118 -12.5008,0 -23.8689,-5.09646 -32.1437,-13.3429l-0.0307087 -0.0318898 -0.0011811 -0.0011811 -0.0330709 0.0330709c-0.36378,-0.36378 -0.707481,-0.741733 -1.02874,-1.1315 -7.63701,-8.17087 -12.3118,-19.1008 -12.3118,-31.0748 0,-12.5008 5.09646,-23.8689 13.3429,-32.1437l0.0318898 -0.0307087 0.0011811 -0.0011811 -0.0330709 -0.0330709c0.36378,-0.36378 0.741733,-0.7063 1.13032,-1.02756 8.17205,-7.63938 19.1032,-12.313 31.076,-12.313zm20.8937 24.6555l-11.3126 11.25c-2.41063,-2.41181 -5.79685,-3.90473 -9.58111,-3.90473 -3.49016,0 -6.64252,1.26969 -9.00237,3.36024 -0.186614,0.206693 -0.379134,0.409843 -0.578741,0.609449l-11.3126 -11.315 11.25 11.3126c-2.41181,2.41063 -3.90473,5.79685 -3.90473,9.58111 0,3.49016 1.26969,6.64252 3.36024,9.00237 0.206693,0.186614 0.409843,0.379134 0.609449,0.578741l-11.315 11.3126 11.3126 -11.25c2.41063,2.41181 5.79685,3.90473 9.58111,3.90473 3.49016,0 6.64252,-1.26969 9.00237,-3.36024 0.186614,-0.206693 0.379134,-0.409843 0.578741,-0.609449l11.3126 11.315 -11.25 -11.3126c2.41181,-2.41063 3.90473,-5.79685 3.90473,-9.58111 0,-3.49016 -1.26969,-6.64252 -3.36024,-9.00237 -0.206693,-0.186614 -0.409843,-0.379134 -0.609449,-0.578741l11.315 -11.3126z"/>
  <path class="fil0" d="M1592.04 1297.56c41.7544,0 79.5603,16.9276 106.928,44.2949 27.3673,27.3673 44.2949,65.1733 44.2949,106.928 0,41.7544 -16.9276,79.5603 -44.2949,106.928 -27.3673,27.3673 -65.1733,44.2949 -106.928,44.2949 -41.7544,0 -79.5603,-16.9276 -106.928,-44.2949 -27.3673,-27.3673 -44.2949,-65.1733 -44.2949,-106.928 0,-41.7544 16.9276,-79.5603 44.2949,-106.928 27.3673,-27.3673 65.1733,-44.2949 106.928,-44.2949zm61.6772 89.5453c-15.7819,-15.7819 -37.5886,-25.5437 -61.6772,-25.5437 -24.0886,0 -45.8953,9.76182 -61.6772,25.5437 -15.7819,15.7819 -25.5437,37.5886 -25.5437,61.6772 0,24.0886 9.76182,45.8953 25.5437,61.6772 15.7819,15.7819 37.5886,25.5437 61.6772,25.5437 24.0886,0 45.8953,-9.76182 61.6772,-25.5437 15.7819,-15.7819 25.5437,-37.5886 25.5437,-61.6772 0,-24.0886 -9.76182,-45.8953 -25.5437,-61.6772z"/>
  <path class="fil0" d="M534.134 1403.23c12.5008,0 23.8689,5.09646 32.1437,13.3429l0.0307087 0.0318898 0.0011811 0.0011811 0.0330709 -0.0330709c0.36378,0.36378 0.7063,0.741733 1.02756,1.13032 7.63938,8.17205 12.313,19.1032 12.313,31.076 0,12.5032 -5.09646,23.8701 -13.3429,32.1437l-0.0318898 0.0307087 -0.0011811 0.0011811 0.0330709 0.0330709c-0.36378,0.36378 -0.741733,0.7063 -1.13032,1.02756 -8.17205,7.63938 -19.1032,12.313 -31.076,12.313 -12.5032,0 -23.8701,-5.09646 -32.1437,-13.3429l-0.0307087 -0.0318898 -0.0011811 -0.0011811 -0.0330709 0.0330709c-0.36378,-0.36378 -0.707481,-0.741733 -1.02874,-1.1315 -7.63701,-8.17087 -12.3118,-19.1008 -12.3118,-31.0748 0,-12.5008 5.09646,-23.8689 13.3429,-32.1437l0.0318898 -0.0307087 0.0011811 -0.0011811 -0.0330709 -0.0330709c0.36378,-0.36378 0.741733,-0.707481 1.1315,-1.02874 8.17087,-7.63701 19.1008,-12.3118 31.0748,-12.3118zm20.8937 24.6555l-11.3126 11.25c-2.41063,-2.41181 -5.79685,-3.90473 -9.58111,-3.90473 -3.49016,0 -6.64252,1.26969 -9.00237,3.36024 -0.186614,0.206693 -0.379134,0.409843 -0.578741,0.609449l-11.3126 -11.315 11.25 11.3126c-2.41181,2.41063 -3.90473,5.79685 -3.90473,9.58111 0,3.49016 1.26969,6.64252 3.36024,9.00237 0.206693,0.186614 0.409843,0.379134 0.609449,0.578741l-11.315 11.3126 11.3126 -11.25c2.41063,2.41181 5.79685,3.90473 9.58111,3.90473 3.49016,0 6.64252,-1.26969 9.00237,-3.36024 0.186614,-0.206693 0.379134,-0.409843 0.578741,-0.609449l11.3126 11.315 -11.25 -11.3126c2.41181,-2.41063 3.90473,-5.79685 3.90473,-9.58111 0,-3.49016 -1.26969,-6.64252 -3.36024,-9.00237 -0.206693,-0.186614 -0.409843,-0.379134 -0.609449,-0.578741l11.315 -11.3126z"/>
  <path class="fil0" d="M534.134 1297.56c41.7544,0 79.5603,16.9276 106.928,44.2949 27.3673,27.3673 44.2949,65.1733 44.2949,106.928 0,41.7544 -16.9276,79.5603 -44.2949,106.928 -27.3673,27.3673 -65.1733,44.2949 -106.928,44.2949 -41.7544,0 -79.5603,-16.9276 -106.928,-44.2949 -27.3673,-27.3673 -44.2949,-65.1733 -44.2949,-106.928 0,-41.7544 16.9276,-79.5603 44.2949,-106.928 27.3673,-27.3673 65.1733,-44.2949 106.928,-44.2949zm61.6772 89.5453c-15.7819,-15.7819 -37.5886,-25.5437 -61.6772,-25.5437 -24.0886,0 -45.8953,9.76182 -61.6772,25.5437 -15.7819,15.7819 -25.5437,37.5886 -25.5437,61.6772 0,24.0886 9.76182,45.8953 25.5437,61.6772 15.7819,15.7819 37.5886,25.5437 61.6772,25.5437 24.0886,0 45.8953,-9.76182 61.6772,-25.5437 15.7819,-15.7819 25.5437,-37.5886 25.5437,-61.6772 0,-24.0886 -9.76182,-45.8953 -25.5437,-61.6772z"/>
  <path class="fil0" d="M254.156 1125.34c-16.9134,5.03859 -26.5382,22.8366 -21.4996,39.75 5.03859,16.9134 22.8366,26.5382 39.75,21.4996 127.339,-38.126 153.292,-77.8465 172.583,-107.368 10.7197,-16.4055 17.7697,-27.1937 91.5981,-27.1937l145.1 0c17.6728,0 32.0008,-14.328 32.0008,-32.0008 0,-17.6728 -14.328,-32.0008 -32.0008,-32.0008l-145.1 0c-108.378,0 -122.945,22.2921 -145.097,56.1945 -13.8543,21.202 -32.4945,49.7292 -137.334,81.1194z"/>
  <path class="fil0" d="M800 1312l196.258 0c17.6728,0 32.0008,14.328 32.0008,32.0008l0 103.872c0,17.6728 -14.328,32.0008 -32.0008,32.0008l-196.258 0c-17.6728,0 -32.0008,-14.328 -32.0008,-32.0008l0 -103.872c0,-17.6728 14.328,-32.0008 32.0008,-32.0008zm164.257 64.0016l-132.256 0 0 39.8705 132.256 0 0 -39.8705z"/>
  <path class="fil0" d="M715.44 1216.43c-17.6728,0 -32.0008,14.328 -32.0008,32.0008 0,17.6728 14.328,32.0008 32.0008,32.0008l1052.74 0c17.6728,0 32.0008,-14.328 32.0008,-32.0008 0,-17.6728 -14.328,-32.0008 -32.0008,-32.0008l-1052.74 0z"/>
  <path class="fil0" d="M1271.22 1403.23c12.5032,0 23.8701,5.09646 32.1437,13.3429l0.0307087 0.0318898 0.0011811 0.0011811 0.0330709 -0.0330709c0.36378,0.36378 0.7063,0.741733 1.02756,1.13032 7.63938,8.17205 12.313,19.1032 12.313,31.076 0,12.5032 -5.09646,23.8701 -13.3429,32.1437l-0.0318898 0.0307087 -0.0011811 0.0011811 0.0330709 0.0330709c-0.36378,0.36378 -0.741733,0.707481 -1.1315,1.02874 -8.17087,7.63701 -19.1008,12.3118 -31.0748,12.3118 -12.5008,0 -23.8689,-5.09646 -32.1437,-13.3429l-0.0307087 -0.0318898 -0.0011811 -0.0011811 -0.0330709 0.0330709c-0.36378,-0.36378 -0.707481,-0.741733 -1.02874,-1.1315 -7.63701,-8.17087 -12.3118,-19.1008 -12.3118,-31.0748 0,-12.5008 5.09646,-23.8689 13.3429,-32.1437l0.0318898 -0.0307087 0.0011811 -0.0011811 -0.0330709 -0.0330709c0.36378,-0.36378 0.741733,-0.7063 1.13032,-1.02756 8.17205,-7.63938 19.1032,-12.313 31.076,-12.313zm20.8937 24.6555l-11.3126 11.25c-2.41063,-2.41181 -5.79685,-3.90473 -9.58111,-3.90473 -3.49016,0 -6.64252,1.26969 -9.00237,3.36024 -0.186614,0.206693 -0.379134,0.409843 -0.578741,0.609449l-11.3126 -11.315 11.25 11.3126c-2.41181,2.41063 -3.90473,5.79685 -3.90473,9.58111 0,3.49016 1.26969,6.64252 3.36024,9.00237 0.206693,0.186614 0.409843,0.379134 0.609449,0.578741l-11.315 11.3126 11.3126 -11.25c2.41063,2.41181 5.79685,3.90473 9.58111,3.90473 3.49016,0 6.64252,-1.26969 9.00237,-3.36024 0.186614,-0.206693 0.379134,-0.409843 0.578741,-0.609449l11.3126 11.315 -11.25 -11.3126c2.41181,-2.41063 3.90473,-5.79685 3.90473,-9.58111 0,-3.49016 -1.26969,-6.64252 -3.36024,-9.00237 -0.206693,-0.186614 -0.409843,-0.379134 -0.609449,-0.578741l11.315 -11.3126z"/>
  <path class="fil0" d="M1271.22 1297.56c41.7544,0 79.5603,16.9276 106.928,44.2949 27.3673,27.3673 44.2949,65.1733 44.2949,106.928 0,41.7544 -16.9276,79.5603 -44.2949,106.928 -27.3673,27.3673 -65.1733,44.2949 -106.928,44.2949 -41.7544,0 -79.5603,-16.9276 -106.928,-44.2949 -27.3673,-27.3673 -44.2949,-65.1733 -44.2949,-106.928 0,-41.7544 16.9276,-79.5603 44.2949,-106.928 27.3673,-27.3673 65.1733,-44.2949 106.928,-44.2949zm61.6772 89.5453c-15.7819,-15.7819 -37.5886,-25.5437 -61.6772,-25.5437 -24.0886,0 -45.8953,9.76182 -61.6772,25.5437 -15.7819,15.7819 -25.5437,37.5886 -25.5437,61.6772 0,24.0886 9.76182,45.8953 25.5437,61.6772 15.7819,15.7819 37.5886,25.5437 61.6772,25.5437 24.0886,0 45.8953,-9.76182 61.6772,-25.5437 15.7819,-15.7819 25.5437,-37.5886 25.5437,-61.6772 0,-24.0886 -9.76182,-45.8953 -25.5437,-61.6772z"/>
  <path class="fil0" d="M832.503 652.841l0 467.158 911.195 0 0 -467.158 -911.195 0zm-64.0016 499.159l0 -531.16c0,-17.6728 14.328,-32.0008 32.0008,-32.0008l975.197 0c17.6728,0 32.0008,14.328 32.0008,32.0008l0 531.16c0,17.6728 -14.328,32.0008 -32.0008,32.0008l-975.197 0c-17.6728,0 -32.0008,-14.328 -32.0008,-32.0008z"/>
  <polygon class="fil0" points="981.067,727.072 981.067,1045.77 917.065,1045.77 917.065,727.072 "/>
  <polygon class="fil0" points="1115.79,727.072 1115.79,1045.77 1051.79,1045.77 1051.79,727.072 "/>
  <polygon class="fil0" points="1257.43,727.072 1257.43,1045.77 1193.43,1045.77 1193.43,727.072 "/>
  <polygon class="fil0" points="1399.07,727.072 1399.07,1045.77 1335.07,1045.77 1335.07,727.072 "/>
  <polygon class="fil0" points="1540.72,727.072 1540.72,1045.77 1476.71,1045.77 1476.71,727.072 "/>
  <polygon class="fil0" points="1689.27,727.072 1689.27,1045.77 1625.27,1045.77 1625.27,727.072 "/>
 </g>
 <rect class="fil1" width="2048" height="2048"/>
</svg>
