<?xml version="1.0" encoding="UTF-8"?>
<!DOCTYPE svg PUBLIC "-//W3C//DTD SVG 1.1//EN" "http://www.w3.org/Graphics/SVG/1.1/DTD/svg11.dtd">
<!-- Creator: CorelDRAW -->
<svg xmlns="http://www.w3.org/2000/svg" xml:space="preserve" width="2048px" height="2048px" style="shape-rendering:geometricPrecision; text-rendering:geometricPrecision; image-rendering:optimizeQuality; fill-rule:evenodd; clip-rule:evenodd"
viewBox="0 0 2048 2048"
 xmlns:xlink="http://www.w3.org/1999/xlink">
 <defs>
  <style type="text/css">
   <![CDATA[
    .fil1 {fill:none}
    .fil0 {fill:#212121;fill-rule:nonzero}
   ]]>
  </style>
 </defs>
 <g id="Layer_x0020_1">
  <metadata id="CorelCorpID_0Corel-Layer"/>
  <g id="_536934400">
   <g>
    <path id="_537003688" class="fil0" d="M672.001 1233.1l336.874 -181.123 15.1252 28.1256 -15.1536 -28.1847c15.5658,-8.36812 34.9701,-2.53465 43.3382,13.0311 2.66221,4.95237 3.88465,10.2945 3.81614,15.5445l0 152.607 336.874 -181.123 15.1252 28.1256 -15.1536 -28.1847c15.5658,-8.36812 34.9701,-2.53465 43.3382,13.0311 2.66221,4.95237 3.88465,10.2945 3.81614,15.5445l0 152.607 336.874 -181.123 15.1252 28.1256 -15.1536 -28.1847c15.5658,-8.36812 34.9701,-2.53465 43.3382,13.0311 2.66221,4.95237 3.88465,10.2945 3.81614,15.5445l0 687.825c0,17.6728 -14.328,32.0008 -32.0008,32.0008l-384 0 -384 0 -384 0 -384 0c-17.6728,0 -32.0008,-14.328 -32.0008,-32.0008l0 -481.754c0,-12.9626 7.70788,-24.1264 18.7914,-29.1555l382.085 -205.432 15.1252 28.1256 -15.1536 -28.1847c15.5658,-8.36812 34.9701,-2.53465 43.3382,13.0311 2.66221,4.95237 3.88465,10.2945 3.81614,15.5445l0 152.607zm319.999 -99.5339l-335.048 180.142c-4.91575,3.07559 -10.7256,4.8567 -16.9512,4.8567 -17.6728,0 -32.0008,-14.328 -32.0008,-32.0008l0 -152.998 -319.999 172.05 0 430.701 351.999 0 384 0 384 0 351.999 0 0 -602.751 -335.048 180.142c-4.91575,3.07559 -10.7256,4.8567 -16.9512,4.8567 -17.6728,0 -32.0008,-14.328 -32.0008,-32.0008l0 -152.998 -335.048 180.142c-4.91575,3.07559 -10.7256,4.8567 -16.9512,4.8567 -17.6728,0 -32.0008,-14.328 -32.0008,-32.0008l0 -152.998z"/>
    <g>
     <g>
      <polygon id="_537002848" class="fil0" points="688.24,1672.04 688.24,1538.44 752.241,1538.44 752.241,1672.04 "/>
      <polygon id="_537002872" class="fil0" points="534.857,1672.04 534.857,1538.44 598.858,1538.44 598.858,1672.04 "/>
      <polygon id="_537002992" class="fil0" points="381.474,1672.04 381.474,1538.44 445.476,1538.44 445.476,1672.04 "/>
     </g>
     <g>
      <polygon id="_537003568" class="fil0" points="1145.38,1672.04 1145.38,1538.44 1209.38,1538.44 1209.38,1672.04 "/>
      <polygon id="_537003448" class="fil0" points="991.999,1672.04 991.999,1538.44 1056,1538.44 1056,1672.04 "/>
      <polygon id="_537003544" class="fil0" points="838.616,1672.04 838.616,1538.44 902.618,1538.44 902.618,1672.04 "/>
     </g>
     <g>
      <polygon id="_537003136" class="fil0" points="1602.52,1672.04 1602.52,1538.44 1666.53,1538.44 1666.53,1672.04 "/>
      <polygon id="_537002896" class="fil0" points="1449.14,1672.04 1449.14,1538.44 1513.14,1538.44 1513.14,1672.04 "/>
      <polygon id="_537002944" class="fil0" points="1295.76,1672.04 1295.76,1538.44 1359.76,1538.44 1359.76,1672.04 "/>
     </g>
     <g>
      <polygon id="_537002176" class="fil0" points="752.241,1422.66 752.241,1485.13 688.24,1485.13 688.24,1422.66 "/>
      <polygon id="_537002656" class="fil0" points="598.858,1422.66 598.858,1485.13 534.857,1485.13 534.857,1422.66 "/>
      <polygon id="_537002248" class="fil0" points="445.476,1422.66 445.476,1485.13 381.474,1485.13 381.474,1422.66 "/>
     </g>
     <g>
      <polygon id="_537002776" class="fil0" points="1209.38,1422.66 1209.38,1485.13 1145.38,1485.13 1145.38,1422.66 "/>
      <polygon id="_537002392" class="fil0" points="1056,1422.66 1056,1485.13 991.999,1485.13 991.999,1422.66 "/>
      <polygon id="_537002128" class="fil0" points="902.618,1422.66 902.618,1485.13 838.616,1485.13 838.616,1422.66 "/>
     </g>
     <g>
      <polygon id="_537002344" class="fil0" points="1666.53,1422.66 1666.53,1485.13 1602.52,1485.13 1602.52,1422.66 "/>
      <polygon id="_537002464" class="fil0" points="1513.14,1422.66 1513.14,1485.13 1449.14,1485.13 1449.14,1422.66 "/>
      <polygon id="_537002440" class="fil0" points="1359.76,1422.66 1359.76,1485.13 1295.76,1485.13 1295.76,1422.66 "/>
     </g>
    </g>
    <path id="_536933896" class="fil0" d="M284.231 1239.36c-0.413386,17.6043 13.5213,32.2122 31.1256,32.6256 17.6043,0.413386 32.2122,-13.5213 32.6256,-31.1256 2.73307,-108.084 9.60237,-220.303 16.4906,-332.873 12.2197,-199.703 24.5055,-400.53 14.2512,-595.088l66.3615 0c-9.64016,184.119 1.80709,367.936 13.2508,551.654 5.79449,93.0237 11.589,186.026 14.5713,276.586 0.551575,17.6043 15.2717,31.4268 32.876,30.8752 17.6043,-0.551575 31.4268,-15.2717 30.8752,-32.876 -3.10394,-94.2709 -8.83701,-186.295 -14.5713,-278.336 -11.9835,-192.38 -23.9705,-384.867 -11.341,-575.94 0.16063,-1.29921 0.244488,-2.62205 0.244488,-3.96378 0,-17.6728 -14.328,-32.0008 -32.0008,-32.0008l-134.176 0 0 0.00236221c-0.708662,0 -1.42087,0.0212599 -2.1378,0.0696851 -17.6327,1.17992 -30.9709,16.4339 -29.791,34.0666l0.0543308 -0.00354331c13.4752,201.327 0.589371,411.889 -12.2185,621.204 -6.83977,111.776 -13.6595,223.203 -16.4906,335.124z"/>
    <path id="_536933872" class="fil0" d="M295.896 247.68c-17.6728,0 -32.0008,14.328 -32.0008,32.0008 0,17.6728 14.328,32.0008 32.0008,32.0008l232.014 0c17.6728,0 32.0008,-14.328 32.0008,-32.0008 0,-17.6728 -14.328,-32.0008 -32.0008,-32.0008l-232.014 0z"/>
    <path id="_536933848" class="fil0" d="M681.732 1239.36c-0.413386,17.6043 13.5213,32.2122 31.1256,32.6256 17.6043,0.413386 32.2122,-13.5213 32.6256,-31.1256 2.73307,-108.084 9.60237,-220.303 16.4906,-332.873 12.2197,-199.703 24.5055,-400.53 14.2512,-595.088l66.3615 0c-9.64016,184.119 1.80709,367.936 13.2508,551.654 5.79449,93.0237 11.589,186.026 14.5713,276.586 0.551575,17.6043 15.2717,31.4268 32.876,30.8752 17.6043,-0.551575 31.4268,-15.2717 30.8752,-32.876 -3.10394,-94.2709 -8.83701,-186.295 -14.5713,-278.336 -11.9835,-192.38 -23.9705,-384.867 -11.341,-575.94 0.16063,-1.29921 0.244488,-2.62205 0.244488,-3.96378 0,-17.6728 -14.328,-32.0008 -32.0008,-32.0008l-134.176 0 0 0.00236221c-0.708662,0 -1.42087,0.0212599 -2.1378,0.0696851 -17.6327,1.17992 -30.9709,16.4339 -29.791,34.0666l0.0543308 -0.00354331c13.4752,201.327 0.589371,411.889 -12.2185,621.204 -6.83977,111.776 -13.6595,223.203 -16.4906,335.124z"/>
    <path id="_536934448" class="fil0" d="M693.396 247.68c-17.6728,0 -32.0008,14.328 -32.0008,32.0008 0,17.6728 14.328,32.0008 32.0008,32.0008l232.014 0c17.6728,0 32.0008,-14.328 32.0008,-32.0008 0,-17.6728 -14.328,-32.0008 -32.0008,-32.0008l-232.014 0z"/>
   </g>
   <path id="_536934040" class="fil0" d="M1129.08 1203.25c0,17.6728 14.328,32.0008 32.0008,32.0008 17.6728,0 32.0008,-14.328 32.0008,-32.0008l0 -531.251 448 0 0 463.415c0,17.6728 14.328,32.0008 32.0008,32.0008 17.6728,0 32.0008,-14.328 32.0008,-32.0008l0 -495.416c0,-17.6728 -14.328,-32.0008 -32.0008,-32.0008l-512.001 0c-17.6728,0 -32.0008,14.328 -32.0008,32.0008l0 563.252z"/>
  </g>
 </g>
 <rect class="fil1" width="2048" height="2048"/>
</svg>
